<?xml version="1.0" encoding="iso-8859-1"?>
<!-- Generator: Adobe Illustrator 19.0.0, SVG Export Plug-In . SVG Version: 6.00 Build 0)  -->
<svg version="1.1" id="Capa_1" xmlns="http://www.w3.org/2000/svg" xmlns:xlink="http://www.w3.org/1999/xlink" x="0px" y="0px"
	 viewBox="0 0 511.999 511.999" style="enable-background:new 0 0 511.999 511.999;" xml:space="preserve">
<g>
	<g>
		<path d="M490.076,384.059L382.648,276.632c-10.892-10.871-25.662-18.586-41.748-21.039l47.359-47.359
			c33.552,5.967,68.396-4.788,92.704-29.097c31.396-31.397,39.638-79.397,20.506-119.444c-4.459-9.332-16.824-11.444-24.127-4.138
			l-34.39,34.391h-21.201v-21.2l34.391-34.391c7.312-7.311,5.185-19.673-4.138-24.126c-40.046-19.131-88.048-10.89-119.445,20.508
			c-24.308,24.308-35.064,59.15-29.096,92.704l-58.207,58.207l-81.855-81.855l10.6-10.601c6.898-6.897,5.461-18.446-2.887-23.455
			L65.115,2.137c-5.898-3.54-13.449-2.609-18.313,2.255l-42.401,42.4c-4.864,4.864-5.793,12.414-2.255,18.313l63.601,106.001
			c5.055,8.427,16.612,9.73,23.455,2.887l10.601-10.601l81.855,81.854l-58.207,58.207c-33.552-5.967-68.396,4.789-92.704,29.097
			c-31.398,31.397-39.64,79.398-20.508,119.444c4.459,9.332,16.824,11.444,24.127,4.138l34.39-34.391h21.2v21.2l-34.391,34.391
			c-7.312,7.311-5.185,19.673,4.138,24.126c14.394,6.877,29.812,10.217,45.121,10.216c27.282-0.001,54.211-10.612,74.323-30.723
			c24.308-24.308,35.064-59.15,29.096-92.704l47.361-47.361c2.454,16.089,10.172,30.863,21.049,41.761l107.416,107.416
			c29.18,29.181,76.658,29.312,106.01-0.003C519.294,460.829,519.293,413.277,490.076,384.059z M81.578,139.217L33.877,59.716
			l25.848-25.847l79.5,47.7C133.692,87.102,89.049,131.746,81.578,139.217z M121.001,142.193
			c13.809-13.81,9.637-9.637,21.201-21.201l81.854,81.854l-21.2,21.2L121.001,142.193z M181.237,372.854
			c-3.784,3.784-5.265,9.298-3.884,14.469c6.894,25.81-0.542,53.563-19.407,72.43c-16.956,16.955-40.686,24.458-63.61,21.21
			l21.21-21.21c2.811-2.811,4.391-6.624,4.391-10.599v-42.402c0-8.279-6.712-14.991-14.991-14.991H62.545
			c-3.977,0-7.789,1.58-10.6,4.391l-21.21,21.21c-3.247-22.927,4.256-46.656,21.21-63.61c18.865-18.865,46.619-26.302,72.43-19.407
			c5.171,1.38,10.684-0.099,14.469-3.883c3.329-3.329,184.978-184.978,191.627-191.627c3.784-3.784,5.265-9.298,3.884-14.469
			c-6.894-25.81,0.542-53.563,19.407-72.43c16.955-16.955,40.682-24.461,63.61-21.21l-21.21,21.21
			c-2.811,2.811-4.391,6.624-4.391,10.599v42.4c0,8.279,6.712,14.991,14.991,14.991h42.401c3.977,0,7.789-1.58,10.6-4.391
			l21.21-21.21c3.247,22.927-4.256,46.656-21.21,63.61c-18.865,18.865-46.62,26.3-72.43,19.407
			c-5.171-1.381-10.684,0.099-14.469,3.883L181.237,372.854z M468.883,468.86c-17.574,17.551-46.105,17.516-63.613,0.007
			L297.863,361.46c-15.183-15.213-19.832-41.718,0.568-63.038c21.319-20.4,47.825-15.75,63.028-0.579l107.416,107.416
			C486.406,422.791,486.405,451.325,468.883,468.86z"/>
	</g>
</g>
<g>
	<g>
		<path d="M447.343,426.134L341.408,320.198c-5.853-5.854-15.346-5.854-21.2,0c-5.854,5.854-5.854,15.346,0,21.2l105.935,105.935
			c5.853,5.854,15.347,5.854,21.2,0C453.197,441.479,453.197,431.988,447.343,426.134z"/>
	</g>
</g>
<g>
</g>
<g>
</g>
<g>
</g>
<g>
</g>
<g>
</g>
<g>
</g>
<g>
</g>
<g>
</g>
<g>
</g>
<g>
</g>
<g>
</g>
<g>
</g>
<g>
</g>
<g>
</g>
<g>
</g>
</svg>
