<svg id="Capa_1" enable-background="new 0 0 512.02 512.02" height="512" viewBox="0 0 512.02 512.02" width="512" xmlns="http://www.w3.org/2000/svg"><g><g id="Page-1_7_"><g id="_x30_08---Repair-Computer" transform="translate(-1)"><path id="Shape_20_" d="m487.41.01h-460.8c-14.551.464-25.993 12.6-25.6 27.153v372.361c-.393 14.553 11.049 26.689 25.6 27.153h148.326l-17.066 34.133h-28.86c-14.138 0-25.6 11.462-25.6 25.6s11.462 25.6 25.6 25.6h256c14.138 0 25.6-11.462 25.6-25.6s-11.462-25.6-25.6-25.6h-28.86l-17.067-34.133h148.327c14.551-.464 25.993-12.6 25.6-27.153v-372.361c.392-14.554-11.049-26.689-25.6-27.153zm-460.8 17.066h460.8c5.091.526 8.858 4.979 8.533 10.086v331.248h-477.867v-331.247c-.324-5.108 3.443-9.561 8.534-10.087zm366.933 469.334c0 4.713-3.82 8.533-8.533 8.533h-256c-4.713 0-8.533-3.821-8.533-8.533s3.821-8.533 8.533-8.533h256c4.713-.001 8.533 3.82 8.533 8.533zm-56.473-25.6h-160.12l17.067-34.133h125.986zm150.34-51.2h-460.8c-5.091-.526-8.858-4.979-8.533-10.086v-24.047h477.867v24.047c.324 5.107-3.443 9.56-8.534 10.086z"/><path id="Shape_19_" d="m115.766 329.021c16.503 16.395 43.145 16.395 59.648 0l75.179-75.196 72.593 72.593c19.997 20.011 52.429 20.022 72.439.026 20.011-19.997 20.022-52.429.026-72.439l-41.916-41.916c37.311-15.46 60.21-53.412 56.491-93.628-.705-8.017-6.051-14.872-13.653-17.51-7.717-2.87-16.4-.95-22.187 4.907l-23.893 23.791c-1.821 1.807-4.379 2.662-6.921 2.313l-20.856-2.962c-3.648-.511-6.508-3.389-6.997-7.04l-2.927-20.762c-.371-2.604.505-5.231 2.364-7.091l23.774-23.791c5.867-5.822 7.762-14.55 4.838-22.281-2.721-7.611-9.664-12.909-17.724-13.525-24.4-2.215-48.677 5.385-67.458 21.119s-30.518 38.302-32.613 62.713l-31.829-32.23-11.452-22.827c-2.951-5.756-7.793-10.322-13.713-12.928l-34.475-14.763c-6.752-2.926-14.606-1.427-19.806 3.78l-6.059 6.059c-5.204 5.202-6.7 13.056-3.772 19.806l14.754 34.534c2.618 5.909 7.197 10.733 12.962 13.653l22.622 11.315 52.198 52.907-91.657 91.691c-16.414 16.51-16.407 43.182.02 59.682zm267.819-62.967c8.622 8.637 11.981 21.217 8.812 33.002s-12.384 20.984-24.175 24.132-24.365-.233-32.987-8.87l-72.576-72.533 18.142-18.202 72.576 72.533c3.348 3.234 8.671 3.188 11.962-.104 3.292-3.292 3.338-8.614.104-11.962l-67.072-67.072c12.087 2.65 24.585 2.833 36.745.538zm-217.182-154.258c-.661-.663-1.425-1.217-2.261-1.638l-23.825-11.947c-2.217-1.12-3.982-2.966-5.001-5.231l-14.763-34.475c-.167-.337-.106-.743.154-1.015l6.067-6.067c.267-.265.676-.324 1.007-.145l34.415 14.737c2.272 1.007 4.132 2.759 5.274 4.966l12.023 23.979c.4.802.924 1.537 1.553 2.176l46.012 46.583c.709 3.868 1.664 7.688 2.859 11.435l-10.411 10.411zm-38.588 169.609 117.99-117.99c2.396-2.4 3.143-5.991 1.903-9.148-9.125-23.21-6.191-49.43 7.839-70.049 14.029-20.619 37.341-32.974 62.28-33.008 2.253 0 4.506.102 6.784.307 1.43.101 2.656 1.06 3.098 2.423.594 1.484.259 3.179-.853 4.326l-23.68 23.714c-5.654 5.636-8.345 13.593-7.27 21.504l2.927 20.813c1.542 11.221 10.347 20.054 21.564 21.632l20.949 2.953c7.845 1.037 15.726-1.627 21.333-7.211l23.842-23.765c1.136-1.088 2.799-1.421 4.267-.853 1.342.405 2.3 1.59 2.415 2.987 2.072 22.243-5.888 44.252-21.709 60.023-21.199 21.295-53.029 27.946-80.981 16.922-3.161-1.241-6.756-.491-9.156 1.911l-118.018 118.042c-6.347 6.346-15.598 8.823-24.267 6.499s-15.44-9.097-17.762-17.766c-2.322-8.67.158-17.92 6.505-24.266z"/><path id="Path_15_" clip-rule="evenodd" d="m157.486 295.818c2.263 0 4.433-.9 6.033-2.5l89.225-89.207c2.162-2.161 3.006-5.312 2.215-8.265s-3.097-5.259-6.05-6.05-6.103.053-8.265 2.214l-89.19 89.242c-2.44 2.44-3.169 6.11-1.849 9.298 1.319 3.188 4.43 5.267 7.881 5.268z" fill-rule="evenodd"/></g></g></g></svg>